<svg xmlns="http://www.w3.org/2000/svg" width="512" height="512" viewBox="0 0 24 24">
  <style>
    path {
      fill: #000000; /* Default to black for light mode */
    }
    @media (prefers-color-scheme: dark) {
      path {
        fill: #FFFFFF; /* White for dark mode */
      }
    }
  </style>
  <path d="M8 5h2v2H8V5zM6 7h2v2H6V7zM4 9h2v2H4V9zm-2 2h2v2H2v-2zm2 2h2v2H4v-2zm2 2h2v2H6v-2zm2 2h2v2H8v-2zm8-12h-2v2h2V5zm2 2h-2v2h2V7zm2 2h-2v2h2V9zm2 2h-2v2h2v-2zm-2 2h-2v2h2v-2zm-2 2h-2v2h2v-2zm-2 2h-2v2h2v-2z"/>
</svg>